<?xml version="1.0" encoding="UTF-8"?>
<svg xmlns="http://www.w3.org/2000/svg" xmlns:xlink="http://www.w3.org/1999/xlink" width="415pt" height="149pt" viewBox="0 0 415 149" version="1.1">
<g id="surface1">
<path style="fill-rule:nonzero;fill:rgb(39.215686%,74.901961%,100%);fill-opacity:1;stroke-width:1;stroke-linecap:round;stroke-linejoin:round;stroke:rgb(0%,0%,0%);stroke-opacity:1;stroke-miterlimit:10;" d="M 161.5 1386 L 213.5 1328.5 L 287.5 1340 L 298.5 1411.5 L 197.5 1446.5 Z M 161.5 1386 " transform="matrix(1.25,0,0,1.25,-201.25,-1660)"/>
<path style=" stroke:none;fill-rule:nonzero;fill:rgb(39.215686%,74.901961%,100%);fill-opacity:1;" d="M 266.789062 45.117188 L 288.925781 20.640625 C 300.21875 8.148438 317.046875 2.183594 333.6875 4.769531 L 363.351562 9.378906 C 384.886719 12.726562 401.777344 29.640625 405.09375 51.179688 L 406.933594 63.179688 C 410.605469 87.039062 396.699219 110.117188 373.886719 118.023438 L 325.527344 134.78125 C 303.109375 142.546875 278.320312 133.496094 266.1875 113.105469 L 260.902344 104.222656 C 249.679688 85.367188 252.066406 61.398438 266.789062 45.117188 Z M 266.789062 45.117188 "/>
<path style="fill:none;stroke-width:1;stroke-linecap:round;stroke-linejoin:round;stroke:rgb(0%,0%,0%);stroke-opacity:1;stroke-miterlimit:10;" d="M 374.43125 1364.096875 L 392.140625 1344.5125 C 401.175 1334.51875 414.6375 1329.746875 427.95 1331.815625 L 451.68125 1335.503125 C 468.909375 1338.18125 482.421875 1351.7125 485.075 1368.94375 L 486.546875 1378.5375 C 489.484375 1397.63125 478.359375 1416.09375 460.109375 1422.41875 L 421.421875 1435.825 C 403.4875 1442.0375 383.65625 1434.796875 373.95 1418.484375 L 369.721875 1411.378125 C 360.74375 1396.29375 362.653125 1377.11875 374.43125 1364.096875 Z M 374.43125 1364.096875 " transform="matrix(1.25,0,0,1.25,-201.25,-1660)"/>
<path style="fill:none;stroke-width:1;stroke-linecap:round;stroke-linejoin:round;stroke:rgb(0%,0%,0%);stroke-opacity:1;stroke-miterlimit:10;" d="M 392.00625 1384.784375 L 267.99375 1390.215625 " transform="matrix(1.25,0,0,1.25,-201.25,-1660)"/>
<path style=" stroke:none;fill-rule:nonzero;fill:rgb(0%,0%,0%);fill-opacity:1;" d="M 132.53125 75.164062 C 134.058594 76.566406 134.160156 78.941406 132.757812 80.46875 C 131.363281 81.992188 128.988281 82.101562 127.460938 80.699219 C 125.9375 79.300781 125.828125 76.929688 127.230469 75.398438 C 128.628906 73.871094 131 73.769531 132.53125 75.164062 "/>
<path style="fill:none;stroke-width:1;stroke-linecap:butt;stroke-linejoin:miter;stroke:rgb(0%,0%,0%);stroke-opacity:1;stroke-miterlimit:10;" d="M 267.025 1388.1375 C 268.246875 1389.253125 268.328125 1391.153125 267.20625 1392.371875 C 266.090625 1393.59375 264.190625 1393.68125 262.96875 1392.559375 C 261.75 1391.440625 261.6625 1389.54375 262.784375 1388.31875 C 263.903125 1387.096875 265.8 1387.015625 267.025 1388.1375 " transform="matrix(1.25,0,0,1.25,-201.25,-1660)"/>
<path style=" stroke:none;fill-rule:nonzero;fill:rgb(0%,0%,0%);fill-opacity:1;" d="M 289.96875 73.585938 C 288.441406 72.183594 288.339844 69.808594 289.742188 68.28125 C 291.136719 66.757812 293.511719 66.648438 295.039062 68.050781 C 296.5625 69.449219 296.671875 71.820312 295.269531 73.351562 C 293.871094 74.878906 291.5 74.980469 289.96875 73.585938 "/>
<path style="fill:none;stroke-width:1;stroke-linecap:butt;stroke-linejoin:miter;stroke:rgb(0%,0%,0%);stroke-opacity:1;stroke-miterlimit:10;" d="M 392.975 1386.8625 C 391.753125 1385.746875 391.671875 1383.846875 392.79375 1382.628125 C 393.909375 1381.40625 395.809375 1381.31875 397.03125 1382.440625 C 398.25 1383.559375 398.3375 1385.45625 397.215625 1386.68125 C 396.096875 1387.903125 394.2 1387.984375 392.975 1386.8625 " transform="matrix(1.25,0,0,1.25,-201.25,-1660)"/>
<path style="fill:none;stroke-width:2;stroke-linecap:round;stroke-linejoin:round;stroke:rgb(100%,14.901961%,0%);stroke-opacity:1;stroke-miterlimit:10;" d="M 364.5125 1385.9875 L 295.5 1389.25 " transform="matrix(1.25,0,0,1.25,-201.25,-1660)"/>
</g>
</svg>
