<?xml version="1.0" encoding="UTF-8"?>
<svg xmlns="http://www.w3.org/2000/svg" xmlns:xlink="http://www.w3.org/1999/xlink" width="600pt" height="153pt" viewBox="0 0 600 153" version="1.1">
<g id="surface1">
<path style="fill-rule:nonzero;fill:rgb(39.215686%,74.901961%,100%);fill-opacity:1;stroke-width:1;stroke-linecap:round;stroke-linejoin:round;stroke:rgb(0%,0%,0%);stroke-opacity:1;stroke-miterlimit:10;" d="M 343 960.5 L 395 903 L 469 914.5 L 480 986 L 379 1021 Z M 343 960.5 " transform="matrix(1.25,0,0,1.25,-222.5,-1125)"/>
<path style="fill-rule:nonzero;fill:rgb(69.803922%,85.098039%,100%);fill-opacity:1;stroke-width:1;stroke-linecap:round;stroke-linejoin:round;stroke:rgb(0%,0%,0%);stroke-opacity:1;stroke-miterlimit:10;" d="M 291.9625 932.76875 C 289.2375 927.66875 285.725 922.875 281.425 918.575 C 257.996875 895.140625 220.003125 895.140625 196.575 918.575 C 173.140625 942.003125 173.140625 979.996875 196.575 1003.425 C 220.003125 1026.859375 257.996875 1026.859375 281.425 1003.425 C 285.725 999.125 289.2375 994.33125 291.9625 989.23125 L 235.5 961 Z M 291.9625 932.76875 " transform="matrix(1.25,0,0,1.25,-222.5,-1125)"/>
<path style="fill-rule:nonzero;fill:rgb(39.215686%,74.901961%,100%);fill-opacity:1;stroke-width:1;stroke-linecap:round;stroke-linejoin:round;stroke:rgb(0%,0%,0%);stroke-opacity:1;stroke-miterlimit:10;" d="M 540.309375 938.59375 L 558.01875 919.0125 C 567.059375 909.01875 580.51875 904.246875 593.83125 906.315625 L 617.5625 910.003125 C 634.79375 912.68125 648.3 926.2125 650.953125 943.44375 L 652.43125 953.04375 C 655.36875 972.13125 644.24375 990.59375 625.99375 996.91875 L 587.3 1010.325 C 569.36875 1016.5375 549.534375 1009.296875 539.83125 992.984375 L 535.6 985.878125 C 526.625 970.79375 528.534375 951.61875 540.309375 938.59375 Z M 540.309375 938.59375 " transform="matrix(1.25,0,0,1.25,-222.5,-1125)"/>
<path style="fill:none;stroke-width:1;stroke-linecap:round;stroke-linejoin:round;stroke:rgb(0%,0%,0%);stroke-opacity:1;stroke-miterlimit:10;" d="M 267.8375 926.6375 L 262.03125 997.3625 " transform="matrix(1.25,0,0,1.25,-222.5,-1125)"/>
<path style="fill-rule:nonzero;fill:rgb(0%,0%,0%);fill-opacity:1;stroke-width:1;stroke-linecap:butt;stroke-linejoin:miter;stroke:rgb(0%,0%,0%);stroke-opacity:1;stroke-miterlimit:10;" d="M 259.84375 998.0625 C 261.109375 996.99375 263.003125 997.15 264.075 998.409375 C 265.14375 999.675 264.99375 1001.565625 263.725 1002.640625 C 262.465625 1003.7125 260.56875 1003.55625 259.5 1002.29375 C 258.425 1001.028125 258.58125 999.1375 259.84375 998.0625 " transform="matrix(1.25,0,0,1.25,-222.5,-1125)"/>
<path style="fill-rule:nonzero;fill:rgb(0%,0%,0%);fill-opacity:1;stroke-width:1;stroke-linecap:butt;stroke-linejoin:miter;stroke:rgb(0%,0%,0%);stroke-opacity:1;stroke-miterlimit:10;" d="M 270.025 925.9375 C 268.75625 927.00625 266.8625 926.85 265.79375 925.590625 C 264.721875 924.325 264.875 922.434375 266.140625 921.359375 C 267.403125 920.2875 269.296875 920.44375 270.36875 921.70625 C 271.440625 922.971875 271.284375 924.8625 270.025 925.9375 " transform="matrix(1.25,0,0,1.25,-222.5,-1125)"/>
<path style="fill:none;stroke-width:1;stroke-linecap:round;stroke-linejoin:round;stroke:rgb(0%,0%,0%);stroke-opacity:1;stroke-miterlimit:10;" d="M 426.671875 920.975 L 420.86875 991.703125 " transform="matrix(1.25,0,0,1.25,-222.5,-1125)"/>
<path style="fill-rule:nonzero;fill:rgb(0%,0%,0%);fill-opacity:1;stroke-width:1;stroke-linecap:butt;stroke-linejoin:miter;stroke:rgb(0%,0%,0%);stroke-opacity:1;stroke-miterlimit:10;" d="M 418.684375 992.403125 C 419.94375 991.33125 421.840625 991.4875 422.909375 992.75 C 423.98125 994.015625 423.828125 995.90625 422.5625 996.98125 C 421.3 998.05 419.40625 997.89375 418.3375 996.63125 C 417.2625 995.36875 417.41875 993.475 418.684375 992.403125 " transform="matrix(1.25,0,0,1.25,-222.5,-1125)"/>
<path style="fill-rule:nonzero;fill:rgb(0%,0%,0%);fill-opacity:1;stroke-width:1;stroke-linecap:butt;stroke-linejoin:miter;stroke:rgb(0%,0%,0%);stroke-opacity:1;stroke-miterlimit:10;" d="M 428.859375 920.278125 C 427.59375 921.346875 425.703125 921.190625 424.628125 919.93125 C 423.559375 918.6625 423.715625 916.775 424.975 915.7 C 426.2375 914.628125 428.13125 914.784375 429.203125 916.046875 C 430.278125 917.3125 430.121875 919.203125 428.859375 920.278125 " transform="matrix(1.25,0,0,1.25,-222.5,-1125)"/>
<path style="fill:none;stroke-width:1;stroke-linecap:round;stroke-linejoin:round;stroke:rgb(0%,0%,0%);stroke-opacity:1;stroke-miterlimit:10;" d="M 606.3375 920.975 L 600.53125 991.703125 " transform="matrix(1.25,0,0,1.25,-222.5,-1125)"/>
<path style="fill-rule:nonzero;fill:rgb(0%,0%,0%);fill-opacity:1;stroke-width:1;stroke-linecap:butt;stroke-linejoin:miter;stroke:rgb(0%,0%,0%);stroke-opacity:1;stroke-miterlimit:10;" d="M 598.34375 992.403125 C 599.609375 991.33125 601.503125 991.4875 602.575 992.75 C 603.64375 994.015625 603.49375 995.90625 602.225 996.98125 C 600.965625 998.05 599.06875 997.89375 598 996.63125 C 596.925 995.36875 597.08125 993.475 598.34375 992.403125 " transform="matrix(1.25,0,0,1.25,-222.5,-1125)"/>
<path style="fill-rule:nonzero;fill:rgb(0%,0%,0%);fill-opacity:1;stroke-width:1;stroke-linecap:butt;stroke-linejoin:miter;stroke:rgb(0%,0%,0%);stroke-opacity:1;stroke-miterlimit:10;" d="M 608.525 920.278125 C 607.25625 921.346875 605.3625 921.190625 604.29375 919.93125 C 603.221875 918.6625 603.375 916.775 604.640625 915.7 C 605.903125 914.628125 607.796875 914.784375 608.86875 916.046875 C 609.940625 917.3125 609.784375 919.203125 608.525 920.278125 " transform="matrix(1.25,0,0,1.25,-222.5,-1125)"/>
</g>
</svg>
