<?xml version="1.0" encoding="UTF-8"?>
<svg xmlns="http://www.w3.org/2000/svg" xmlns:xlink="http://www.w3.org/1999/xlink" width="413pt" height="128pt" viewBox="0 0 413 128" version="1.1">
<g id="surface1">
<path style="fill-rule:nonzero;fill:rgb(69.803922%,85.098039%,100%);fill-opacity:1;stroke-width:1;stroke-linecap:round;stroke-linejoin:round;stroke:rgb(0%,0%,0%);stroke-opacity:1;stroke-miterlimit:10;" d="M 510.10625 1570.5 L 560.309375 1620.703125 L 510.10625 1670.909375 L 459.9 1620.703125 Z M 510.10625 1570.5 " transform="matrix(1.25,0,0,1.25,-341.25,-1962.5)"/>
<path style="fill-rule:nonzero;fill:rgb(69.803922%,85.098039%,100%);fill-opacity:1;stroke-width:1;stroke-linecap:round;stroke-linejoin:round;stroke:rgb(0%,0%,0%);stroke-opacity:1;stroke-miterlimit:10;" d="M 359.35625 1585.14375 C 378.88125 1604.671875 378.88125 1636.328125 359.35625 1655.85625 C 339.828125 1675.38125 308.171875 1675.38125 288.64375 1655.85625 C 269.11875 1636.328125 269.11875 1604.671875 288.64375 1585.14375 C 308.171875 1565.61875 339.828125 1565.61875 359.35625 1585.14375 " transform="matrix(1.25,0,0,1.25,-341.25,-1962.5)"/>
<path style="fill:none;stroke-width:1;stroke-linecap:round;stroke-linejoin:round;stroke:rgb(0%,0%,0%);stroke-opacity:1;stroke-miterlimit:10;" d="M 324.5 1620 L 414.6 1620.721875 " transform="matrix(1.25,0,0,1.25,-341.25,-1962.5)"/>
<path style="fill-rule:nonzero;fill:rgb(0%,0%,0%);fill-opacity:1;stroke-width:1;stroke-linecap:butt;stroke-linejoin:miter;stroke:rgb(0%,0%,0%);stroke-opacity:1;stroke-miterlimit:10;" d="M 422.6 1620.784375 L 414.625 1617.721875 L 414.578125 1623.721875 Z M 422.6 1620.784375 " transform="matrix(1.25,0,0,1.25,-341.25,-1962.5)"/>
<path style="fill:none;stroke-width:3;stroke-linecap:round;stroke-linejoin:round;stroke:rgb(100%,14.901961%,0%);stroke-opacity:1;stroke-miterlimit:10;" d="M 324.5 1619 L 366.10625 1619.6625 " transform="matrix(1.25,0,0,1.25,-341.25,-1962.5)"/>
<path style="fill-rule:nonzero;fill:rgb(100%,14.901961%,0%);fill-opacity:1;stroke-width:3;stroke-linecap:butt;stroke-linejoin:miter;stroke:rgb(100%,14.901961%,0%);stroke-opacity:1;stroke-miterlimit:10;" d="M 369.8 1619.725 L 366.128125 1618.28125 L 366.08125 1621.05 Z M 369.8 1619.725 " transform="matrix(1.25,0,0,1.25,-341.25,-1962.5)"/>
<path style="fill:none;stroke-width:3;stroke-linecap:round;stroke-linejoin:round;stroke:rgb(100%,98.431373%,0%);stroke-opacity:1;stroke-miterlimit:10;" d="M 324.5 1619 L 340.85 1591.94375 " transform="matrix(1.25,0,0,1.25,-341.25,-1962.5)"/>
<path style="fill-rule:nonzero;fill:rgb(100%,98.431373%,0%);fill-opacity:1;stroke-width:3;stroke-linecap:butt;stroke-linejoin:miter;stroke:rgb(100%,98.431373%,0%);stroke-opacity:1;stroke-miterlimit:10;" d="M 342.7625 1588.78125 L 339.6625 1591.225 L 342.034375 1592.659375 Z M 342.7625 1588.78125 " transform="matrix(1.25,0,0,1.25,-341.25,-1962.5)"/>
<path style="fill:none;stroke-width:1;stroke-linecap:round;stroke-linejoin:round;stroke:rgb(0%,0%,0%);stroke-opacity:1;stroke-miterlimit:10;" d="M 510.309375 1619 L 592.440625 1605.4125 " transform="matrix(1.25,0,0,1.25,-341.25,-1962.5)"/>
<path style="fill-rule:nonzero;fill:rgb(0%,0%,0%);fill-opacity:1;stroke-width:1;stroke-linecap:butt;stroke-linejoin:miter;stroke:rgb(0%,0%,0%);stroke-opacity:1;stroke-miterlimit:10;" d="M 600.3375 1604.109375 L 591.953125 1602.45625 L 592.93125 1608.375 Z M 600.3375 1604.109375 " transform="matrix(1.25,0,0,1.25,-341.25,-1962.5)"/>
<path style="fill:none;stroke-width:3;stroke-linecap:round;stroke-linejoin:round;stroke:rgb(100%,14.901961%,0%);stroke-opacity:1;stroke-miterlimit:10;" d="M 510.309375 1620.4 L 551.9125 1620.4 " transform="matrix(1.25,0,0,1.25,-341.25,-1962.5)"/>
<path style="fill-rule:nonzero;fill:rgb(100%,14.901961%,0%);fill-opacity:1;stroke-width:3;stroke-linecap:butt;stroke-linejoin:miter;stroke:rgb(100%,14.901961%,0%);stroke-opacity:1;stroke-miterlimit:10;" d="M 555.609375 1620.4 L 551.9125 1619.015625 L 551.9125 1621.784375 Z M 555.609375 1620.4 " transform="matrix(1.25,0,0,1.25,-341.25,-1962.5)"/>
<path style="fill:none;stroke-width:3;stroke-linecap:round;stroke-linejoin:round;stroke:rgb(100%,98.431373%,0%);stroke-opacity:1;stroke-miterlimit:10;" d="M 510.309375 1618 L 520.453125 1594.659375 " transform="matrix(1.25,0,0,1.25,-341.25,-1962.5)"/>
<path style="fill-rule:nonzero;fill:rgb(100%,98.431373%,0%);fill-opacity:1;stroke-width:3;stroke-linecap:butt;stroke-linejoin:miter;stroke:rgb(100%,98.431373%,0%);stroke-opacity:1;stroke-miterlimit:10;" d="M 521.93125 1591.26875 L 519.184375 1594.10625 L 521.725 1595.2125 Z M 521.93125 1591.26875 " transform="matrix(1.25,0,0,1.25,-341.25,-1962.5)"/>
</g>
</svg>
